<svg version="1.2" xmlns="http://www.w3.org/2000/svg" viewBox="0 0 360 360" width="400" height="400">
	<title>logo1</title>
	<style>
		.s0 { fill: #000000 } 
	</style>
	<path id="p8Zw1IMvZ" fill-rule="evenodd" class="s0" d="m217.4 116.8c-24.3-6.8-42.4-32.4-39.2-55.1 3.4-24.5 18.8-41.8 41.4-46.9 26.8-5.9 52 8.6 60.9 35.3 10.8 31.8-12.9 66.3-46.8 68-6.2 0.4-11.9-0.1-16.3-1.3zm2.4 228.7c-16.1-3.7-28.4-13.2-35.4-27.3-10.6-21.8-7.3-44.1 9.4-60.6 11.4-11.4 25.7-16.9 40.9-15.7 48.1 4 65.8 65.2 27.5 94-12.1 9.1-28.5 12.7-42.4 9.6zm-116.7-114.6c-14.7-4-27-14.4-33.9-28.9-6.8-14.4-6.4-30.5 1-45.7 15.7-31.8 58-38.5 83.3-13.2 13.6 13.4 18.5 32.3 13.6 50.8-7.5 27.5-36.5 44.3-64 37z"/>
	<path id="pMkt8QRp0" class="s0" d="m103.1 345.4c-26.5-7.5-43.4-34.2-38-60.3 3.3-15.2 10.3-26 22.4-33.9 9.2-5.9 16.2-7.9 33-9.6 10.7-1 14.7-2.2 22.1-5.6 12.9-6.1 22.6-15.8 29.2-29.1 5-9.9 5.2-11 5.6-23.6 0.3-11 0-14.4-2.3-21.2-5.1-14.9-14.4-27.1-26.4-34.1-8.8-5.1-13.7-6.5-30.4-8.7-17-2.3-23-4-31.8-9.6-15.2-9.8-25.3-34-22-52.1 1.9-10.2 5.8-17.8 14.2-26.7 13.5-14.4 31-20.4 47.6-16.1 17.1 4.3 30.5 14.2 36.8 27 3.6 7.1 5.1 13.6 6.9 30.7 1.9 17.8 9.7 32 23.3 42.5 9.6 7.5 19.2 10.8 37.1 12.8 11 1.4 17.7 2.9 22.5 5 7.8 3.6 19 13.7 23.3 21.1 15.9 27.2 3 64.3-26.1 75.2-3.9 1.5-13.8 3.5-21.6 4.4-20.5 2.3-31.5 7.3-42.3 18.9-9.9 10.4-15.4 23.2-16.7 39.4-1.1 13.8-3.9 23.3-9.3 31.6-12.1 18.9-35.7 27.9-57.1 22z"/>
</svg>